{
  "accessors": [
    {
      "bufferView": 2,
      "componentType": 5126,
      "count": 42023,
      "max": [
        100.90074920654297,
        100.86185455322266,
        100.61173248291016
      ],
      "min": [
        -100.45281219482422,
        -100.77774047851563,
        -100.62812805175781
      ],
      "type": "VEC3"
    },
    {
      "bufferView": 2,
      "byteOffset": 504276,
      "componentType": 5126,
      "count": 42023,
      "max": [
        0.9999512434005737,
        0.9999925494194031,
        0.9999988675117493
      ],
      "min": [
        -0.9999818205833435,
        -0.9999520182609558,
        -0.9999834299087524
      ],
      "type": "VEC3"
    },
    {
      "bufferView": 1,
      "componentType": 5126,
      "count": 42023,
      "max": [
        1.2249712944030762,
        1.0003060102462769
      ],
      "min": [
        -3.103503465652466,
        -0.006336425896733999
      ],
      "type": "VEC2"
    },
    {
      "bufferView": 0,
      "componentType": 5125,
      "count": 249057,
      "type": "SCALAR"
    }
  ],
  "asset": {
    "extras": {
      "author": "21kiwi (https://sketchfab.com/21kiwi)",
      "license": "SKETCHFAB Standard (https://sketchfab.com/licenses)",
      "source": "https://sketchfab.com/3d-models/jupiter-like-planet-196190a173bc4341ad992e8dfb1bb915",
      "title": "Jupiter Like Planet"
    },
    "generator": "Sketchfab-16.12.0",
    "version": "2.0"
  },
  "bufferViews": [
    {
      "buffer": 0,
      "byteLength": 996228,
      "name": "floatBufferViews",
      "target": 34963
    },
    {
      "buffer": 0,
      "byteLength": 336184,
      "byteOffset": 996228,
      "byteStride": 8,
      "name": "floatBufferViews",
      "target": 34962
    },
    {
      "buffer": 0,
      "byteLength": 1008552,
      "byteOffset": 1332412,
      "byteStride": 12,
      "name": "floatBufferViews",
      "target": 34962
    }
  ],
  "buffers": [
    {
      "byteLength": 2340964,
      "uri": "scene.bin"
    }
  ],
  "images": [
    {
      "uri": "textures/Material.001_baseColor.png"
    }
  ],
  "materials": [
    {
      "doubleSided": true,
      "name": "Material.001",
      "pbrMetallicRoughness": {
        "baseColorTexture": {
          "index": 0
        },
        "metallicFactor": 0.0
      }
    }
  ],
  "meshes": [
    {
      "name": "planet_Material.001_0",
      "primitives": [
        {
          "attributes": {
            "NORMAL": 1,
            "POSITION": 0,
            "TEXCOORD_0": 2
          },
          "indices": 3,
          "material": 0,
          "mode": 4
        }
      ]
    }
  ],
  "nodes": [
    {
      "children": [
        1
      ],
      "matrix": [
        1.0,
        0.0,
        0.0,
        0.0,
        0.0,
        2.220446049250313e-16,
        -1.0,
        0.0,
        0.0,
        1.0,
        2.220446049250313e-16,
        0.0,
        0.0,
        0.0,
        0.0,
        1.0
      ],
      "name": "Sketchfab_model"
    },
    {
      "children": [
        2
      ],
      "matrix": [
        0.009999999776482582,
        0.0,
        0.0,
        0.0,
        0.0,
        0.0,
        0.009999999776482582,
        0.0,
        0.0,
        -0.009999999776482582,
        0.0,
        0.0,
        0.0,
        0.0,
        0.0,
        1.0
      ],
      "name": "eaef8695f3b94d229ec12321bc61b5a5.fbx"
    },
    {
      "children": [
        3
      ],
      "name": "RootNode"
    },
    {
      "children": [
        4
      ],
      "matrix": [
        100000.0,
        0.0,
        0.0,
        0.0,
        0.0,
        -0.01629206793918314,
        -99999.99999999868,
        0.0,
        0.0,
        99999.99999999868,
        -0.01629206793918314,
        0.0,
        0.0,
        0.0,
        0.0,
        1.0
      ],
      "name": "planet"
    },
    {
      "mesh": 0,
      "name": "planet_Material.001_0"
    }
  ],
  "samplers": [
    {
      "magFilter": 9729,
      "minFilter": 9987,
      "wrapS": 10497,
      "wrapT": 10497
    }
  ],
  "scene": 0,
  "scenes": [
    {
      "name": "Sketchfab_Scene",
      "nodes": [
        0
      ]
    }
  ],
  "textures": [
    {
      "sampler": 0,
      "source": 0
    }
  ]
}
