{
	"asset":{
		"generator":"Khronos glTF Blender I/O v4.0.44",
		"version":"2.0"
	},
	"extensionsUsed":[
		"KHR_materials_specular",
		"KHR_materials_ior"
	],
	"scene":0,
	"scenes":[
		{
			"name":"Scene",
			"nodes":[
				0,
				1
			]
		}
	],
	"nodes":[
		{
			"mesh":0,
			"name":"Sphere",
			"translation":[
				0,
				0.9869685173034668,
				0
			]
		},
		{
			"name":"Empty",
			"translation":[
				4.111526012420654,
				0,
				0
			]
		}
	],
	"animations":[
		{
			"channels":[
				{
					"sampler":0,
					"target":{
						"node":0,
						"path":"rotation"
					}
				}
			],
			"name":"SphereAction",
			"samplers":[
				{
					"input":4,
					"interpolation":"LINEAR",
					"output":5
				}
			]
		}
	],
	"materials":[
		{
			"doubleSided":true,
			"extensions":{
				"KHR_materials_specular":{
					"specularTexture":{
						"index":0
					}
				},
				"KHR_materials_ior":{
					"ior":1.4500000476837158
				}
			},
			"name":"Material.001",
			"normalTexture":{
				"index":1,
				"scale":4.700000286102295
			},
			"pbrMetallicRoughness":{
				"baseColorTexture":{
					"index":2
				},
				"metallicFactor":0,
				"roughnessFactor":0.7772727012634277
			}
		}
	],
	"meshes":[
		{
			"name":"Sphere",
			"primitives":[
				{
					"attributes":{
						"POSITION":0,
						"NORMAL":1,
						"TEXCOORD_0":2
					},
					"indices":3,
					"material":0
				}
			]
		}
	],
	"textures":[
		{
			"sampler":0,
			"source":0
		},
		{
			"sampler":0,
			"source":1
		},
		{
			"sampler":0,
			"source":2
		}
	],
	"images":[
		{
			"mimeType":"image/png",
			"name":"2k_earth_specular_map",
			"uri":"textures/2k_earth_specular_map.png"
		},
		{
			"mimeType":"image/png",
			"name":"8k_earth_normal_map",
			"uri":"textures/8k_earth_normal_map.png"
		},
		{
			"mimeType":"image/jpeg",
			"name":"2k_earth_daymap",
			"uri":"textures/2k_earth_daymap.jpg"
		}
	],
	"accessors":[
		{
			"bufferView":0,
			"componentType":5126,
			"count":2141,
			"max":[
				0.9872310161590576,
				0.9975767135620117,
				0.9872307181358337
			],
			"min":[
				-0.9872305393218994,
				-0.9975767135620117,
				-0.9872310161590576
			],
			"type":"VEC3"
		},
		{
			"bufferView":1,
			"componentType":5126,
			"count":2141,
			"type":"VEC3"
		},
		{
			"bufferView":2,
			"componentType":5126,
			"count":2141,
			"type":"VEC2"
		},
		{
			"bufferView":3,
			"componentType":5123,
			"count":11904,
			"type":"SCALAR"
		},
		{
			"bufferView":4,
			"componentType":5126,
			"count":201,
			"max":[
				8.333333333333334
			],
			"min":[
				0
			],
			"type":"SCALAR"
		},
		{
			"bufferView":5,
			"componentType":5126,
			"count":201,
			"type":"VEC4"
		}
	],
	"bufferViews":[
		{
			"buffer":0,
			"byteLength":25692,
			"byteOffset":0,
			"target":34962
		},
		{
			"buffer":0,
			"byteLength":25692,
			"byteOffset":25692,
			"target":34962
		},
		{
			"buffer":0,
			"byteLength":17128,
			"byteOffset":51384,
			"target":34962
		},
		{
			"buffer":0,
			"byteLength":23808,
			"byteOffset":68512,
			"target":34963
		},
		{
			"buffer":0,
			"byteLength":804,
			"byteOffset":92320
		},
		{
			"buffer":0,
			"byteLength":3216,
			"byteOffset":93124
		}
	],
	"samplers":[
		{
			"magFilter":9729,
			"minFilter":9987
		}
	],
	"buffers":[
		{
			"byteLength":96340,
			"uri":"self%20made%20Earth.bin"
		}
	]
}
